# xmcd
#
# Track frame offsets:
#	150
#	16000
#	27822
#	38800
#	52297
#	65475
#	77850
#	89897
#	101285
#	112472
#	123050
#	132902
#	148800
#	158770
#	167990
#	178092
#	195002
#	210060
#
# Disc length: 3146
#
# Revision: 2
# Processed by: cddbd v1.5.1PL0 Copyright (c) Steve Scherf et al.
# Submitted via: dBpowerAMP V4.0
# Normalized: r0:TSWAP
#
DISCID=f40c4812
DTITLE=Various Artist - The Soul Box - CD3
DYEAR=1900
DGENRE=Soul
TTITLE0=Aretha Franklin - I Say A Little Prayer
TTITLE1=Wilson Pickett - Down To My Last Heartbreak
TTITLE2=Sam and Dave - You Don't Know What You Mean To Me
TTITLE3=Martha and The Vandellas - Nowhere To Run
TTITLE4=Percy Sledge - Take Time T Know Her
TTITLE5=Sam Cooke - You Send Me
TTITLE6=Jackie Wilson - Doggin Around
TTITLE7=Lee Dorsey - Holy Cow
TTITLE8=Ike and Tina Turner - Poor Fool
TTITLE9=Etta James - Tell Mama
TTITLE10=Ben E King - I Count The Tears
TTITLE11=Harold Melvin and The Blue Notes - The Love I Lost
TTITLE12=Gladys Knight and The Pips - Operator
TTITLE13=James Brown - Tell Me What You're Gonna Do
TTITLE14=Joe Tex - Ain't Nobody's Business
TTITLE15=The Tams - Be Young, Be Foolish, Be Happy
TTITLE16=Esther Phillips - Release Me
TTITLE17=Ramsey Lewis - The "In" Crowd
EXTD=Genre is actually Soul, not Blues
EXTT0=
EXTT1=
EXTT2=
EXTT3=
EXTT4=
EXTT5=
EXTT6=
EXTT7=
EXTT8=
EXTT9=
EXTT10=
EXTT11=
EXTT12=
EXTT13=
EXTT14=
EXTT15=
EXTT16=
EXTT17=
PLAYORDER=
